P3
2
2
255
105 38 46
116 52 46
68 52 94
90 57 94
