P3
2
2
255
178 100 255
0 128 255
255 128 0
255 0 0
