P3
2 2
255
0 0  0  128 128  128  
128 128  128  100 100  100  
