P3
2 2
255
54 54  54  145 145  145  
109 109  109  127 127  127
