P3
2 2
255
100 88 69  198 176  137  
146 130 101  195 173  135  
