P3
2
2
255
255 0 0
255 128 0
0 128 255
178 100 255
