P3
2 2
255
255 50  50  255 178  50  
50 178  255  228 150  255  
