P3
2 2
255
205 0  0  205 78  0  
0 78  205  128 50  205  
