P3
2 2
255
85 85 85  127 127 127  
127 127 127  177 177 177  
